<mxfile host="65bd71144e">
    <diagram id="463sbE6QSRMsaVXqrVnA" name="Diagram">
        <mxGraphModel dx="771" dy="226" grid="1" gridSize="10" guides="1" tooltips="1" connect="1" arrows="1" fold="1" page="1" pageScale="1" pageWidth="827" pageHeight="1169" math="0" shadow="0">
            <root>
                <mxCell id="0"/>
                <mxCell id="1" parent="0"/>
                <mxCell id="rrXLT1pJ-hLWZYPC4P-o-2" value="Сервер" style="shape=umlFrame;whiteSpace=wrap;html=1;strokeColor=default;" parent="1" vertex="1">
                    <mxGeometry x="40" y="200" width="760" height="920" as="geometry"/>
                </mxCell>
                <mxCell id="rrXLT1pJ-hLWZYPC4P-o-46" value="" style="ellipse;html=1;shape=endState;fillColor=#000000;strokeColor=#000000;" parent="1" vertex="1">
                    <mxGeometry x="79.99852941176468" y="1050" width="30" height="30" as="geometry"/>
                </mxCell>
                <mxCell id="rrXLT1pJ-hLWZYPC4P-o-128" style="edgeStyle=orthogonalEdgeStyle;rounded=0;orthogonalLoop=1;jettySize=auto;html=1;" parent="1" source="rrXLT1pJ-hLWZYPC4P-o-129" target="rrXLT1pJ-hLWZYPC4P-o-7" edge="1">
                    <mxGeometry relative="1" as="geometry">
                        <Array as="points">
                            <mxPoint x="505" y="620"/>
                            <mxPoint x="505" y="620"/>
                        </Array>
                    </mxGeometry>
                </mxCell>
                <mxCell id="rrXLT1pJ-hLWZYPC4P-o-129" value="" style="html=1;points=[];perimeter=orthogonalPerimeter;fillColor=#000000;strokeColor=none;direction=north;" parent="1" vertex="1">
                    <mxGeometry x="470" y="590" width="230" height="5" as="geometry"/>
                </mxCell>
                <mxCell id="rrXLT1pJ-hLWZYPC4P-o-132" style="edgeStyle=orthogonalEdgeStyle;rounded=0;orthogonalLoop=1;jettySize=auto;html=1;" parent="1" source="rrXLT1pJ-hLWZYPC4P-o-133" target="rrXLT1pJ-hLWZYPC4P-o-14" edge="1">
                    <mxGeometry relative="1" as="geometry">
                        <Array as="points">
                            <mxPoint x="530" y="940"/>
                            <mxPoint x="530" y="940"/>
                        </Array>
                    </mxGeometry>
                </mxCell>
                <mxCell id="rrXLT1pJ-hLWZYPC4P-o-133" value="" style="html=1;points=[];perimeter=orthogonalPerimeter;fillColor=#000000;strokeColor=none;direction=north;" parent="1" vertex="1">
                    <mxGeometry x="459.99" y="922.5" width="260.01" height="5" as="geometry"/>
                </mxCell>
                <mxCell id="rrXLT1pJ-hLWZYPC4P-o-134" style="edgeStyle=orthogonalEdgeStyle;rounded=0;orthogonalLoop=1;jettySize=auto;html=1;" parent="1" source="rrXLT1pJ-hLWZYPC4P-o-7" target="rrXLT1pJ-hLWZYPC4P-o-133" edge="1">
                    <mxGeometry relative="1" as="geometry">
                        <Array as="points">
                            <mxPoint x="505" y="870"/>
                            <mxPoint x="505" y="870"/>
                        </Array>
                    </mxGeometry>
                </mxCell>
                <mxCell id="rrXLT1pJ-hLWZYPC4P-o-135" style="edgeStyle=orthogonalEdgeStyle;rounded=0;orthogonalLoop=1;jettySize=auto;html=1;" parent="1" source="rrXLT1pJ-hLWZYPC4P-o-11" target="rrXLT1pJ-hLWZYPC4P-o-133" edge="1">
                    <mxGeometry relative="1" as="geometry">
                        <Array as="points">
                            <mxPoint x="608" y="896"/>
                            <mxPoint x="608" y="896"/>
                        </Array>
                    </mxGeometry>
                </mxCell>
                <mxCell id="rrXLT1pJ-hLWZYPC4P-o-136" value="" style="edgeStyle=orthogonalEdgeStyle;rounded=0;orthogonalLoop=1;jettySize=auto;html=1;endArrow=classic;endFill=1;" parent="1" source="rrXLT1pJ-hLWZYPC4P-o-129" target="rrXLT1pJ-hLWZYPC4P-o-16" edge="1">
                    <mxGeometry relative="1" as="geometry">
                        <mxPoint x="701.6500000000001" y="750.0434782608696" as="sourcePoint"/>
                        <mxPoint x="573.5" y="750.0434782608696" as="targetPoint"/>
                        <Array as="points">
                            <mxPoint x="608" y="620"/>
                            <mxPoint x="608" y="620"/>
                        </Array>
                    </mxGeometry>
                </mxCell>
                <mxCell id="rrXLT1pJ-hLWZYPC4P-o-137" style="edgeStyle=orthogonalEdgeStyle;rounded=0;orthogonalLoop=1;jettySize=auto;html=1;" parent="1" source="rrXLT1pJ-hLWZYPC4P-o-16" target="rrXLT1pJ-hLWZYPC4P-o-133" edge="1">
                    <mxGeometry relative="1" as="geometry">
                        <Array as="points">
                            <mxPoint x="700" y="659"/>
                        </Array>
                    </mxGeometry>
                </mxCell>
                <mxCell id="rrXLT1pJ-hLWZYPC4P-o-138" value="[РСУС&lt;br&gt;запущен(ы)]" style="edgeLabel;html=1;align=center;verticalAlign=middle;resizable=0;points=[];" parent="rrXLT1pJ-hLWZYPC4P-o-137" vertex="1" connectable="0">
                    <mxGeometry x="-0.2855" y="-2" relative="1" as="geometry">
                        <mxPoint x="2" y="7" as="offset"/>
                    </mxGeometry>
                </mxCell>
                <mxCell id="rrXLT1pJ-hLWZYPC4P-o-141" value="&lt;h1&gt;Диаграмма деятельности &quot;Запуск сервера экосистемы&quot;&lt;/h1&gt;&lt;div&gt;Описывает процесс запуска сервера экосистемы.&lt;span&gt;&amp;nbsp;По завершению действий, описанных в данной диаграмме сервер переходит в состояние готовности приема внеших запросов на подключение клиентов&lt;/span&gt;&lt;/div&gt;&lt;span style=&quot;text-align: center&quot;&gt;&lt;br&gt;&lt;/span&gt;" style="text;html=1;strokeColor=none;fillColor=none;spacing=5;spacingTop=-20;whiteSpace=wrap;overflow=hidden;rounded=0;fontStyle=0" parent="1" vertex="1">
                    <mxGeometry x="40" y="40" width="680" height="120" as="geometry"/>
                </mxCell>
                <mxCell id="rrXLT1pJ-hLWZYPC4P-o-4" value="Запуск АО сервера" style="html=1;align=center;verticalAlign=top;rounded=1;absoluteArcSize=1;arcSize=10;dashed=0;whiteSpace=wrap;" parent="1" vertex="1">
                    <mxGeometry x="240.00000000000009" y="230" width="66.85" height="56.36" as="geometry"/>
                </mxCell>
                <mxCell id="rrXLT1pJ-hLWZYPC4P-o-165" style="edgeStyle=orthogonalEdgeStyle;rounded=0;jumpStyle=arc;orthogonalLoop=1;jettySize=auto;html=1;endArrow=classic;endFill=1;" parent="1" source="rrXLT1pJ-hLWZYPC4P-o-6" target="rrXLT1pJ-hLWZYPC4P-o-163" edge="1">
                    <mxGeometry relative="1" as="geometry">
                        <Array as="points">
                            <mxPoint x="429" y="449"/>
                        </Array>
                    </mxGeometry>
                </mxCell>
                <mxCell id="rrXLT1pJ-hLWZYPC4P-o-6" value="Запуск компонентов экосистемы" style="html=1;align=center;verticalAlign=top;rounded=1;absoluteArcSize=1;arcSize=10;dashed=0;whiteSpace=wrap;" parent="1" vertex="1">
                    <mxGeometry x="523.23" y="420" width="110" height="57.28" as="geometry"/>
                </mxCell>
                <mxCell id="rrXLT1pJ-hLWZYPC4P-o-7" value="Сбор журналов запуска сервера экосистемы" style="html=1;align=center;verticalAlign=top;rounded=1;absoluteArcSize=1;arcSize=10;dashed=0;whiteSpace=wrap;" parent="1" vertex="1">
                    <mxGeometry x="459.99" y="638.86" width="86.66" height="91.14" as="geometry"/>
                </mxCell>
                <mxCell id="rrXLT1pJ-hLWZYPC4P-o-171" value="" style="edgeStyle=orthogonalEdgeStyle;rounded=0;jumpStyle=arc;orthogonalLoop=1;jettySize=auto;html=1;endArrow=classic;endFill=1;" parent="1" source="rrXLT1pJ-hLWZYPC4P-o-8" target="rrXLT1pJ-hLWZYPC4P-o-170" edge="1">
                    <mxGeometry relative="1" as="geometry">
                        <Array as="points">
                            <mxPoint x="360" y="650"/>
                        </Array>
                    </mxGeometry>
                </mxCell>
                <mxCell id="rrXLT1pJ-hLWZYPC4P-o-172" value="[≥ 1&amp;nbsp;необязательный&lt;br&gt;компонент не&lt;br&gt;запустились успешно&amp;nbsp;]" style="edgeLabel;html=1;align=center;verticalAlign=middle;resizable=0;points=[];" parent="rrXLT1pJ-hLWZYPC4P-o-171" vertex="1" connectable="0">
                    <mxGeometry x="0.4086" y="-2" relative="1" as="geometry">
                        <mxPoint x="7" y="15" as="offset"/>
                    </mxGeometry>
                </mxCell>
                <mxCell id="rrXLT1pJ-hLWZYPC4P-o-8" value="" style="rhombus;" parent="1" vertex="1">
                    <mxGeometry x="228.71000000000012" y="630" width="30" height="42.27272727272727" as="geometry"/>
                </mxCell>
                <mxCell id="rrXLT1pJ-hLWZYPC4P-o-161" style="edgeStyle=orthogonalEdgeStyle;rounded=0;orthogonalLoop=1;jettySize=auto;html=1;endArrow=classic;endFill=1;" parent="1" source="rrXLT1pJ-hLWZYPC4P-o-9" target="rrXLT1pJ-hLWZYPC4P-o-4" edge="1">
                    <mxGeometry relative="1" as="geometry">
                        <Array as="points">
                            <mxPoint x="210" y="245"/>
                            <mxPoint x="210" y="245"/>
                        </Array>
                    </mxGeometry>
                </mxCell>
                <mxCell id="rrXLT1pJ-hLWZYPC4P-o-9" value="" style="ellipse;fillColor=#000000;strokeColor=none;" parent="1" vertex="1">
                    <mxGeometry x="110" y="230" width="30" height="30" as="geometry"/>
                </mxCell>
                <mxCell id="rrXLT1pJ-hLWZYPC4P-o-11" value="Запуск резервных способов управления сервером (РСУС)" style="html=1;align=center;verticalAlign=top;rounded=1;absoluteArcSize=1;arcSize=10;dashed=0;whiteSpace=wrap;" parent="1" vertex="1">
                    <mxGeometry x="570.64" y="770" width="75.19" height="100" as="geometry"/>
                </mxCell>
                <mxCell id="rrXLT1pJ-hLWZYPC4P-o-12" value="" style="edgeStyle=orthogonalEdgeStyle;rounded=0;orthogonalLoop=1;jettySize=auto;html=1;" parent="1" source="rrXLT1pJ-hLWZYPC4P-o-8" target="rrXLT1pJ-hLWZYPC4P-o-24" edge="1">
                    <mxGeometry relative="1" as="geometry">
                        <mxPoint x="590.0799999999999" y="616.1" as="targetPoint"/>
                        <Array as="points">
                            <mxPoint x="285" y="805"/>
                        </Array>
                    </mxGeometry>
                </mxCell>
                <mxCell id="rrXLT1pJ-hLWZYPC4P-o-13" value="[Все необязательные&lt;br&gt;компоненты&lt;br&gt;запустились успешно&amp;nbsp;]" style="edgeLabel;html=1;align=center;verticalAlign=middle;resizable=0;points=[];" parent="rrXLT1pJ-hLWZYPC4P-o-12" vertex="1" connectable="0">
                    <mxGeometry x="0.1994" y="3" relative="1" as="geometry">
                        <mxPoint x="-22" y="-11" as="offset"/>
                    </mxGeometry>
                </mxCell>
                <mxCell id="3" value="" style="edgeStyle=none;html=1;" parent="1" source="rrXLT1pJ-hLWZYPC4P-o-14" target="2" edge="1">
                    <mxGeometry relative="1" as="geometry"/>
                </mxCell>
                <mxCell id="rrXLT1pJ-hLWZYPC4P-o-14" value="Ожидание подключение администратора через РСУС" style="whiteSpace=wrap;html=1;rounded=1;" parent="1" vertex="1">
                    <mxGeometry x="470.0000000000001" y="969.9963636363636" width="120" height="60" as="geometry"/>
                </mxCell>
                <mxCell id="rrXLT1pJ-hLWZYPC4P-o-15" style="edgeStyle=orthogonalEdgeStyle;rounded=0;orthogonalLoop=1;jettySize=auto;html=1;" parent="1" source="2" target="rrXLT1pJ-hLWZYPC4P-o-157" edge="1">
                    <mxGeometry relative="1" as="geometry">
                        <Array as="points">
                            <mxPoint x="760" y="1000"/>
                            <mxPoint x="760" y="230"/>
                            <mxPoint x="578" y="230"/>
                        </Array>
                    </mxGeometry>
                </mxCell>
                <mxCell id="rrXLT1pJ-hLWZYPC4P-o-16" value="" style="rhombus;" parent="1" vertex="1">
                    <mxGeometry x="593.2300000000001" y="638.86" width="30" height="42.27272727272727" as="geometry"/>
                </mxCell>
                <mxCell id="rrXLT1pJ-hLWZYPC4P-o-17" style="edgeStyle=orthogonalEdgeStyle;rounded=0;orthogonalLoop=1;jettySize=auto;html=1;startArrow=none;" parent="1" source="rrXLT1pJ-hLWZYPC4P-o-16" target="rrXLT1pJ-hLWZYPC4P-o-11" edge="1">
                    <mxGeometry relative="1" as="geometry"/>
                </mxCell>
                <mxCell id="rrXLT1pJ-hLWZYPC4P-o-18" value="[РСУС &lt;br&gt;не&lt;br&gt;запущен(ы)]" style="edgeLabel;html=1;align=center;verticalAlign=middle;resizable=0;points=[];" parent="rrXLT1pJ-hLWZYPC4P-o-17" vertex="1" connectable="0">
                    <mxGeometry x="-0.2535" relative="1" as="geometry">
                        <mxPoint x="4" y="1" as="offset"/>
                    </mxGeometry>
                </mxCell>
                <mxCell id="rrXLT1pJ-hLWZYPC4P-o-19" value="" style="edgeStyle=orthogonalEdgeStyle;rounded=0;orthogonalLoop=1;jettySize=auto;html=1;endArrow=classic;endFill=1;" parent="1" source="rrXLT1pJ-hLWZYPC4P-o-20" target="rrXLT1pJ-hLWZYPC4P-o-23" edge="1">
                    <mxGeometry relative="1" as="geometry"/>
                </mxCell>
                <mxCell id="rrXLT1pJ-hLWZYPC4P-o-20" value="Запуск ядра ОС сервера экосистемы" style="html=1;align=center;verticalAlign=top;rounded=1;absoluteArcSize=1;arcSize=10;dashed=0;whiteSpace=wrap;" parent="1" vertex="1">
                    <mxGeometry x="383.50999999999976" y="220.90999999999997" width="103.14" height="74.55" as="geometry"/>
                </mxCell>
                <mxCell id="rrXLT1pJ-hLWZYPC4P-o-21" value="" style="edgeStyle=orthogonalEdgeStyle;rounded=0;orthogonalLoop=1;jettySize=auto;html=1;" parent="1" source="rrXLT1pJ-hLWZYPC4P-o-4" target="rrXLT1pJ-hLWZYPC4P-o-20" edge="1">
                    <mxGeometry relative="1" as="geometry"/>
                </mxCell>
                <mxCell id="rrXLT1pJ-hLWZYPC4P-o-149" value="" style="edgeStyle=orthogonalEdgeStyle;rounded=0;orthogonalLoop=1;jettySize=auto;html=1;endArrow=classic;endFill=1;" parent="1" source="rrXLT1pJ-hLWZYPC4P-o-23" target="rrXLT1pJ-hLWZYPC4P-o-157" edge="1">
                    <mxGeometry relative="1" as="geometry">
                        <mxPoint x="525" y="306.36" as="targetPoint"/>
                        <Array as="points">
                            <mxPoint x="520" y="356"/>
                            <mxPoint x="520" y="281"/>
                        </Array>
                    </mxGeometry>
                </mxCell>
                <mxCell id="rrXLT1pJ-hLWZYPC4P-o-23" value="Подключение к сети" style="html=1;align=center;verticalAlign=top;rounded=1;absoluteArcSize=1;arcSize=10;dashed=0;whiteSpace=wrap;" parent="1" vertex="1">
                    <mxGeometry x="383.5100000000001" y="330" width="103.14" height="52.73" as="geometry"/>
                </mxCell>
                <mxCell id="rrXLT1pJ-hLWZYPC4P-o-145" value="" style="edgeStyle=orthogonalEdgeStyle;rounded=0;orthogonalLoop=1;jettySize=auto;html=1;endArrow=classic;endFill=1;" parent="1" source="rrXLT1pJ-hLWZYPC4P-o-24" target="rrXLT1pJ-hLWZYPC4P-o-144" edge="1">
                    <mxGeometry relative="1" as="geometry">
                        <Array as="points">
                            <mxPoint x="280" y="860"/>
                            <mxPoint x="280" y="860"/>
                        </Array>
                    </mxGeometry>
                </mxCell>
                <mxCell id="rrXLT1pJ-hLWZYPC4P-o-24" value="Примение конфигурации компонентов экосистемы" style="html=1;align=center;verticalAlign=top;rounded=1;absoluteArcSize=1;arcSize=10;dashed=0;whiteSpace=wrap;" parent="1" vertex="1">
                    <mxGeometry x="190.5700000000001" y="770" width="106.29" height="70.23" as="geometry"/>
                </mxCell>
                <mxCell id="rrXLT1pJ-hLWZYPC4P-o-25" style="edgeStyle=orthogonalEdgeStyle;rounded=0;orthogonalLoop=1;jettySize=auto;html=1;endArrow=none;endFill=0;dashed=1;" parent="1" source="rrXLT1pJ-hLWZYPC4P-o-26" target="rrXLT1pJ-hLWZYPC4P-o-24" edge="1">
                    <mxGeometry relative="1" as="geometry">
                        <Array as="points">
                            <mxPoint x="135" y="805"/>
                        </Array>
                    </mxGeometry>
                </mxCell>
                <mxCell id="rrXLT1pJ-hLWZYPC4P-o-26" value="&lt;div style=&quot;text-align: left;&quot;&gt;&lt;span style=&quot;background-color: initial;&quot;&gt;Применение конфигураций компонентов осуществляется в следующем порядке:&amp;nbsp;&lt;/span&gt;&lt;/div&gt;&lt;div style=&quot;text-align: left;&quot;&gt;&lt;ol&gt;&lt;li&gt;&lt;span style=&quot;background-color: initial;&quot;&gt;Хранения данных&lt;/span&gt;&lt;/li&gt;&lt;li&gt;Поддержка АО устройств&lt;/li&gt;&lt;li&gt;Безопасность&lt;/li&gt;&lt;li&gt;Регистрация объектов&lt;/li&gt;&lt;li&gt;Статистика&lt;/li&gt;&lt;li&gt;Распределения вычисл. устройств&lt;/li&gt;&lt;li&gt;Управления пользовательской средой&lt;/li&gt;&lt;/ol&gt;&lt;div&gt;Под применением конф-ции понимается запуск активных сервиосв (антивирус, например) и проверка соответсвия настроенному состоянию для пассивной конфигурации&lt;/div&gt;&lt;/div&gt;" style="shape=note2;boundedLbl=1;html=1;size=25;verticalAlign=middle;align=center;rounded=1;whiteSpace=wrap;spacingLeft=8;" parent="1" vertex="1">
                    <mxGeometry x="80" y="295.46000000000004" width="290" height="250.45" as="geometry"/>
                </mxCell>
                <mxCell id="rrXLT1pJ-hLWZYPC4P-o-147" style="edgeStyle=orthogonalEdgeStyle;rounded=0;orthogonalLoop=1;jettySize=auto;html=1;endArrow=classic;endFill=1;" parent="1" source="rrXLT1pJ-hLWZYPC4P-o-144" target="rrXLT1pJ-hLWZYPC4P-o-46" edge="1">
                    <mxGeometry relative="1" as="geometry">
                        <Array as="points">
                            <mxPoint x="313" y="1065"/>
                        </Array>
                    </mxGeometry>
                </mxCell>
                <mxCell id="rrXLT1pJ-hLWZYPC4P-o-144" value="Запуск сервиса приема запросов на соединение" style="html=1;align=center;verticalAlign=top;rounded=1;absoluteArcSize=1;arcSize=10;dashed=0;whiteSpace=wrap;" parent="1" vertex="1">
                    <mxGeometry x="258.7100000000001" y="959.77" width="106.29" height="70.23" as="geometry"/>
                </mxCell>
                <mxCell id="rrXLT1pJ-hLWZYPC4P-o-151" value="" style="edgeStyle=orthogonalEdgeStyle;rounded=0;orthogonalLoop=1;jettySize=auto;html=1;endArrow=classic;endFill=1;" parent="1" source="rrXLT1pJ-hLWZYPC4P-o-157" target="rrXLT1pJ-hLWZYPC4P-o-6" edge="1">
                    <mxGeometry relative="1" as="geometry">
                        <mxPoint x="539.9951466781708" y="283.1875" as="sourcePoint"/>
                        <mxPoint x="750.047619047619" y="310" as="targetPoint"/>
                        <Array as="points">
                            <mxPoint x="570" y="283"/>
                        </Array>
                    </mxGeometry>
                </mxCell>
                <mxCell id="rrXLT1pJ-hLWZYPC4P-o-152" value="[Подключение &lt;br&gt;к сети активно]" style="edgeLabel;html=1;align=center;verticalAlign=middle;resizable=0;points=[];" parent="rrXLT1pJ-hLWZYPC4P-o-151" vertex="1" connectable="0">
                    <mxGeometry x="-0.0984" relative="1" as="geometry">
                        <mxPoint x="6" as="offset"/>
                    </mxGeometry>
                </mxCell>
                <mxCell id="rrXLT1pJ-hLWZYPC4P-o-154" value="" style="edgeStyle=orthogonalEdgeStyle;rounded=0;orthogonalLoop=1;jettySize=auto;html=1;endArrow=classic;endFill=1;jumpStyle=arc;" parent="1" source="rrXLT1pJ-hLWZYPC4P-o-157" target="rrXLT1pJ-hLWZYPC4P-o-129" edge="1">
                    <mxGeometry relative="1" as="geometry">
                        <mxPoint x="525" y="260" as="sourcePoint"/>
                        <mxPoint x="680" y="240" as="targetPoint"/>
                        <Array as="points">
                            <mxPoint x="670" y="281"/>
                        </Array>
                    </mxGeometry>
                </mxCell>
                <mxCell id="rrXLT1pJ-hLWZYPC4P-o-155" value="[Подключение&lt;br&gt;к сети не активно]" style="edgeLabel;html=1;align=center;verticalAlign=middle;resizable=0;points=[];" parent="rrXLT1pJ-hLWZYPC4P-o-154" vertex="1" connectable="0">
                    <mxGeometry x="0.0413" y="2" relative="1" as="geometry">
                        <mxPoint x="5" y="-49" as="offset"/>
                    </mxGeometry>
                </mxCell>
                <mxCell id="rrXLT1pJ-hLWZYPC4P-o-157" value="" style="rhombus;" parent="1" vertex="1">
                    <mxGeometry x="563.2300000000001" y="260" width="30" height="42.27272727272727" as="geometry"/>
                </mxCell>
                <mxCell id="rrXLT1pJ-hLWZYPC4P-o-166" style="edgeStyle=orthogonalEdgeStyle;rounded=0;jumpStyle=arc;orthogonalLoop=1;jettySize=auto;html=1;entryX=0.548;entryY=0.489;entryDx=0;entryDy=0;entryPerimeter=0;endArrow=classic;endFill=1;" parent="1" source="rrXLT1pJ-hLWZYPC4P-o-163" target="rrXLT1pJ-hLWZYPC4P-o-129" edge="1">
                    <mxGeometry relative="1" as="geometry">
                        <Array as="points">
                            <mxPoint x="440" y="560"/>
                            <mxPoint x="583" y="560"/>
                        </Array>
                    </mxGeometry>
                </mxCell>
                <mxCell id="rrXLT1pJ-hLWZYPC4P-o-167" value="[≥ 1 обязательный&lt;br&gt;компонент&lt;br&gt;&amp;nbsp;не запустились]" style="edgeLabel;html=1;align=center;verticalAlign=middle;resizable=0;points=[];" parent="rrXLT1pJ-hLWZYPC4P-o-166" vertex="1" connectable="0">
                    <mxGeometry x="-0.5756" y="4" relative="1" as="geometry">
                        <mxPoint x="79" y="-3" as="offset"/>
                    </mxGeometry>
                </mxCell>
                <mxCell id="rrXLT1pJ-hLWZYPC4P-o-168" style="edgeStyle=orthogonalEdgeStyle;rounded=0;jumpStyle=arc;orthogonalLoop=1;jettySize=auto;html=1;endArrow=classic;endFill=1;" parent="1" source="rrXLT1pJ-hLWZYPC4P-o-163" target="rrXLT1pJ-hLWZYPC4P-o-8" edge="1">
                    <mxGeometry relative="1" as="geometry">
                        <Array as="points">
                            <mxPoint x="420" y="580"/>
                            <mxPoint x="244" y="580"/>
                        </Array>
                    </mxGeometry>
                </mxCell>
                <mxCell id="rrXLT1pJ-hLWZYPC4P-o-169" value="[Все обязательные &lt;br&gt;компоненты&lt;br&gt;запустились успешно&amp;nbsp;]" style="edgeLabel;html=1;align=center;verticalAlign=middle;resizable=0;points=[];" parent="rrXLT1pJ-hLWZYPC4P-o-168" vertex="1" connectable="0">
                    <mxGeometry x="-0.1545" y="-1" relative="1" as="geometry">
                        <mxPoint x="-28" y="11" as="offset"/>
                    </mxGeometry>
                </mxCell>
                <mxCell id="rrXLT1pJ-hLWZYPC4P-o-163" value="" style="rhombus;" parent="1" vertex="1">
                    <mxGeometry x="414.0000000000001" y="477.28" width="30" height="42.27272727272727" as="geometry"/>
                </mxCell>
                <mxCell id="rrXLT1pJ-hLWZYPC4P-o-173" style="edgeStyle=orthogonalEdgeStyle;rounded=0;jumpStyle=arc;orthogonalLoop=1;jettySize=auto;html=1;endArrow=classic;endFill=1;" parent="1" source="rrXLT1pJ-hLWZYPC4P-o-170" target="rrXLT1pJ-hLWZYPC4P-o-144" edge="1">
                    <mxGeometry relative="1" as="geometry">
                        <Array as="points">
                            <mxPoint x="340" y="880"/>
                            <mxPoint x="340" y="880"/>
                        </Array>
                    </mxGeometry>
                </mxCell>
                <mxCell id="rrXLT1pJ-hLWZYPC4P-o-170" value="Перевод сервера в режим аварийной работы" style="whiteSpace=wrap;html=1;rounded=1;arcSize=10;" parent="1" vertex="1">
                    <mxGeometry x="306.85" y="770" width="103.33" height="70" as="geometry"/>
                </mxCell>
                <mxCell id="2" value="&lt;span&gt;Попытка восстановления работоспособности сервера экосистемы&lt;/span&gt;" style="whiteSpace=wrap;html=1;rounded=1;" parent="1" vertex="1">
                    <mxGeometry x="623.2300000000001" y="969.9963636363636" width="120" height="60" as="geometry"/>
                </mxCell>
                <mxCell id="6" style="edgeStyle=orthogonalEdgeStyle;html=1;entryX=0;entryY=0.5;entryDx=0;entryDy=0;strokeColor=#000000;dashed=1;rounded=0;" parent="1" edge="1">
                    <mxGeometry relative="1" as="geometry">
                        <Array as="points">
                            <mxPoint x="440" y="820"/>
                        </Array>
                        <mxPoint x="440" y="1060" as="sourcePoint"/>
                        <mxPoint x="570.64" y="820" as="targetPoint"/>
                    </mxGeometry>
                </mxCell>
                <mxCell id="5" value="Примером РСУС может быть работа через ssh" style="shape=note2;boundedLbl=1;whiteSpace=wrap;html=1;size=25;verticalAlign=top;align=center;" parent="1" vertex="1">
                    <mxGeometry x="375.08" y="1060" width="274.92" height="50" as="geometry"/>
                </mxCell>
            </root>
        </mxGraphModel>
    </diagram>
</mxfile>
